<?xml version="1.0" encoding="UTF-8" standalone="no"?>
<!-- Created with Inkscape (http://www.inkscape.org/) -->

<svg
   xmlns:dc="http://purl.org/dc/elements/1.1/"
   xmlns:cc="http://creativecommons.org/ns#"
   xmlns:rdf="http://www.w3.org/1999/02/22-rdf-syntax-ns#"
   xmlns:svg="http://www.w3.org/2000/svg"
   xmlns="http://www.w3.org/2000/svg"
   xmlns:sodipodi="http://sodipodi.sourceforge.net/DTD/sodipodi-0.dtd"
   xmlns:inkscape="http://www.inkscape.org/namespaces/inkscape"
   width="744.09448819"
   height="1052.3622047"
   id="svg3817"
   version="1.1"
   inkscape:version="0.48.5 r10040"
   sodipodi:docname="New document 5">
  <defs
     id="defs3819" />
  <sodipodi:namedview
     id="base"
     pagecolor="#ffffff"
     bordercolor="#666666"
     borderopacity="1.0"
     inkscape:pageopacity="0.0"
     inkscape:pageshadow="2"
     inkscape:zoom="0.35"
     inkscape:cx="-82.142857"
     inkscape:cy="520"
     inkscape:document-units="px"
     inkscape:current-layer="layer1"
     showgrid="false"
     inkscape:window-width="1077"
     inkscape:window-height="753"
     inkscape:window-x="121"
     inkscape:window-y="0"
     inkscape:window-maximized="0" />
  <metadata
     id="metadata3822">
    <rdf:RDF>
      <cc:Work
         rdf:about="">
        <dc:format>image/svg+xml</dc:format>
        <dc:type
           rdf:resource="http://purl.org/dc/dcmitype/StillImage" />
        <dc:title></dc:title>
      </cc:Work>
    </rdf:RDF>
  </metadata>
  <g
     inkscape:label="Layer 1"
     inkscape:groupmode="layer"
     id="layer1">
    <path
       style="fill:#000000;fill-opacity:1"
       id="path3839"
       d="m 44.895714,225.63018 c 12.437389,0.36959 24.884703,0.38336 37.326927,0.48062 22.707569,0.17941 45.415219,0.27868 68.123459,0.28257 20.87913,0.0122 41.75747,-0.1406 62.63544,-0.33899 11.14765,-0.15547 22.29589,-0.21823 33.44451,-0.20966 10.30382,-0.36005 20.493,0.28766 30.72021,1.42984 1.20899,0.30077 2.41799,0.60153 3.62698,0.9023 0,0 -34.50335,23.92479 -34.50335,23.92479 l 0,0 c -1.07987,-0.21185 -2.15973,-0.4237 -3.2396,-0.63555 -10.06581,-1.20511 -20.13816,-1.49398 -30.27536,-1.15788 -10.95624,0.008 -21.91213,-0.0511 -32.86736,-0.20966 -20.5669,-0.20068 -41.13419,-0.35193 -61.70228,-0.33899 -22.96752,0.004 -45.934446,0.10515 -68.9013,0.28256 -12.883334,0.0986 -25.771011,0.11941 -38.64997,0.48063 0,0 34.261694,-24.89258 34.261694,-24.89258 z"
       inkscape:connector-curvature="0" />
    <path
       style="fill:#000000;fill-opacity:1"
       id="path3841"
       d="m 162.07303,236.90763 c 0.37528,2.65161 0.62615,5.32383 1.12584,7.95484 3.43339,18.07771 8.35631,35.91224 12.73675,53.76785 6.42193,26.1772 5.69017,23.5442 11.78311,50.58361 9.31527,43.28888 17.52258,86.80871 24.40057,130.55025 0.55752,3.66323 2.6401,13.53659 1.44906,17.92914 -0.52697,1.94344 -1.50415,4.18473 -3.3257,5.043 -14.59734,6.87795 -29.09186,15.28573 -45.0398,17.74574 -5.5036,0.84895 -9.70712,-5.48274 -14.32974,-8.58783 -6.26367,-4.20742 -12.19806,-8.88545 -18.29709,-13.32818 C 90.785155,465.43797 51.496618,429.34279 10.597523,395.14509 c -16.4694185,-13.12636 -8.7755179,-7.0395 -23.064825,-18.28191 0,0 33.767758,-21.05696 33.767758,-21.05696 l 0,0 c 12.998145,12.0923 5.917755,5.59542 21.289275,19.43809 39.194034,35.84134 77.988619,72.42496 121.360199,103.2636 6.44144,4.04197 12.64347,8.49331 19.32433,12.12592 4.84147,2.63247 17.25125,1.52434 15.14987,6.61885 -4.31662,10.46511 -18.05282,13.69212 -26.59283,21.12314 -1.40281,1.22064 4.04396,-0.81011 5.04747,-2.37561 2.22419,-3.46982 0.55729,-15.43113 0.37775,-17.92266 -4.15556,-44.32945 -11.24667,-88.32219 -21.4144,-131.68647 -8.97835,-36.89404 -18.84808,-73.52634 -30.83381,-109.56546 0,0 37.06472,-19.91799 37.06472,-19.91799 z"
       inkscape:connector-curvature="0" />
    <path
       style="fill:#000000;fill-opacity:1"
       id="path3843"
       d="m 304.06258,394.1184 c -11.25772,7.94918 -20.04622,18.531 -27.93282,29.69267 -3.66295,7.21883 -12.91769,19.53078 -11.44105,28.18129 0.26614,1.55916 0.96321,3.01322 1.44482,4.51982 7.12712,10.85495 18.60327,15.89109 30.76153,18.84611 11.90433,2.2214 22.34711,-1.55161 32.8425,-6.77658 -71.0695,39.08567 -27.89807,20.57048 -23.0543,9.49736 1.32182,-3.02176 0.38358,-3.51664 -0.76515,-6.588 -11.69731,-15.7978 -28.61799,-26.78634 -43.93739,-38.79676 -7.06677,-5.20889 -13.62061,-10.91545 -19.94071,-16.98201 0,0 35.80636,-21.78858 35.80636,-21.78858 l 0,0 c 5.44425,6.46761 11.62952,12.09163 18.27778,17.32796 7.64038,6.25826 8.68695,7.1987 16.71406,13.41578 10.41616,8.06742 21.39648,15.7135 29.36971,26.40117 1.88083,3.88763 3.55114,5.51254 2.7214,9.88336 -0.25558,1.34631 -1.05206,2.53849 -1.73052,3.72912 -9.31484,16.34658 -37.14573,14.67182 -45.91181,29.69222 -11.21253,4.78204 -22.26537,7.47956 -34.41939,4.36728 -13.22066,-3.88218 -25.23203,-10.3372 -33.07789,-22.10862 -1.56585,-4.02344 -3.06255,-6.4142 -2.67287,-10.85768 0.78335,-8.93237 8.30915,-17.76811 11.74589,-25.70253 7.31872,-11.14014 15.45472,-21.70267 25.76916,-30.27237 0,0 39.43069,-15.68101 39.43069,-15.68101 z"
       inkscape:connector-curvature="0" />
    <path
       style="fill:#000000;fill-opacity:1"
       id="path3845"
       d="m 406.2253,413.35505 c -14.16405,-0.84382 -28.31803,-0.26937 -42.39239,1.42033 -11.49496,1.54384 -22.83729,4.09656 -34.0527,7.01334 2.35764,-3.18829 -13.76908,5.70405 -9.87465,3.42697 11.68903,-6.83458 23.62072,-13.2561 35.19657,-20.28066 0.35598,-0.21602 -0.16541,-1.3049 0.24331,-1.22528 1.31088,0.25534 2.33186,1.30266 3.49778,1.95399 17.49795,8.20635 35.24253,15.86476 52.84381,23.84808 13.05123,6.80125 26.97578,11.27138 41.01109,15.44326 10.7386,13.02019 3.65885,3.23359 -35.48282,25.81811 -1.22192,0.70504 -2.81241,-0.28857 -4.2231,-0.27745 -7.17484,0.0566 -14.44673,0.85625 -21.57785,1.54026 -15.24404,1.10775 -30.17416,3.87157 -44.81283,8.16513 -2.21182,1.05299 -6.84444,3.21286 -9.07291,4.44236 -1.27668,0.70437 -5.01194,2.9818 -3.74236,2.26474 32.99398,-18.63501 42.48433,-26.44247 29.86713,-16.3744 0,0 -38.8659,15.81337 -38.8659,15.81337 l 0,0 c 15.01218,-14.53565 35.2481,-23.71448 54.6384,-31.37688 14.66027,-3.81668 29.64082,-5.88328 44.7263,-7.20588 2.86256,-0.27958 5.72325,-0.57907 8.58769,-0.83873 0.76953,-0.0698 12.42796,-1.0071 13.93778,-1.19722 1.41886,-0.17867 5.36005,-1.62445 4.22284,-0.75736 -31.99359,24.39409 -45.34648,16.18599 -33.01477,23.53589 -13.28331,-5.41609 -26.95263,-9.94784 -39.61382,-16.83849 -17.9191,-8.22555 -36.15727,-15.68488 -54.3872,-23.19007 -1.46337,-0.78854 -3.1256,-1.28661 -4.39011,-2.36562 -18.02894,-15.38415 28.24064,-25.64308 43.43228,-29.66939 11.12181,-2.66407 22.38841,-4.8771 33.76753,-6.08036 14.54855,-1.35449 29.12378,-1.56538 43.72418,-1.85092 0,0 -34.19328,24.84288 -34.19328,24.84288 z"
       inkscape:connector-curvature="0" />
    <path
       style="fill:#000000;fill-opacity:1"
       id="path3847"
       d="m 493.07734,382.66434 c -0.0603,16.78194 1.79444,33.50303 3.31239,50.19743 1.17916,11.44479 1.74772,22.9327 2.21093,34.42325 -0.16846,-1.69332 0.73479,10.32551 1.40342,8.64415 0.23766,-0.59762 0.62506,-2.21162 0.0474,-1.92883 -11.8694,5.8107 -23.21498,12.63538 -34.82248,18.95307 6.98795,-5.97954 11.89126,-14.06743 17.5495,-21.27773 3.68512,-5.1477 7.57669,-10.27643 10.66209,-15.82045 2.27542,-5.86369 4.56545,-11.7259 6.77915,-17.61422 1.79315,-5.64154 3.77622,-11.28025 7.75739,-15.75379 28.55419,-17.09667 32.68277,-29.77354 55.23993,-15.89311 6.99576,5.23313 12.38513,12.02292 17.10287,19.28962 5.14796,8.39767 7.88817,17.92805 11.13338,27.15053 3.25811,10.62177 6.87897,21.15141 9.75347,31.8852 0.34471,1.51523 0.68943,3.03045 1.03414,4.54568 0,0 -36.77012,19.71545 -36.77012,19.71545 l 0,0 c -0.29078,-1.47608 -0.58155,-2.95216 -0.87232,-4.42825 -2.64905,-10.67975 -6.08117,-21.15137 -9.41772,-31.63136 -3.25811,-8.88358 -5.92734,-18.14434 -11.19359,-26.10882 -4.05831,-6.88733 -9.10233,-13.17467 -15.85851,-17.60243 -3.85432,-2.00869 -8.27734,-4.20052 -12.80917,-3.40766 -0.78013,0.13649 -2.8901,1.27724 -2.21105,0.86967 11.32087,-6.79497 22.77519,-13.36508 34.16278,-20.04761 -5.40015,2.55536 -7.28919,8.28329 -9.01981,13.66421 -2.03991,5.93754 -4.4464,11.73004 -6.47969,17.66449 -1.90641,6.50034 -7.32299,11.35126 -10.66935,17.15258 -5.84453,7.14626 -11.23357,14.61423 -16.56018,22.14873 -22.4978,12.61317 -43.5748,37.31102 -43.19487,8.89712 0.0455,-11.5886 -0.34913,-23.17574 -1.04491,-34.74304 -1.11259,-16.64311 -2.75055,-33.24272 -4.80834,-49.79426 0,0 37.58325,-19.14962 37.58325,-19.14962 z"
       inkscape:connector-curvature="0" />
  </g>
</svg>
