<?xml version="1.0" encoding="UTF-8" standalone="no"?>
<!-- Created with Inkscape (http://www.inkscape.org/) -->

<svg
   xmlns:dc="http://purl.org/dc/elements/1.1/"
   xmlns:cc="http://creativecommons.org/ns#"
   xmlns:rdf="http://www.w3.org/1999/02/22-rdf-syntax-ns#"
   xmlns:svg="http://www.w3.org/2000/svg"
   xmlns="http://www.w3.org/2000/svg"
   xmlns:sodipodi="http://sodipodi.sourceforge.net/DTD/sodipodi-0.dtd"
   xmlns:inkscape="http://www.inkscape.org/namespaces/inkscape"
   width="680"
   height="470"
   id="svg2"
   version="1.1"
   inkscape:version="0.48.5 r10040"
   sodipodi:docname="twirl.svg">
  <defs
     id="defs4" />
  <sodipodi:namedview
     id="base"
     pagecolor="#ffffff"
     bordercolor="#666666"
     borderopacity="1.0"
     inkscape:pageopacity="0.0"
     inkscape:pageshadow="2"
     inkscape:zoom="0.35"
     inkscape:cx="375"
     inkscape:cy="520"
     inkscape:document-units="px"
     inkscape:current-layer="text2985"
     showgrid="false"
     inkscape:window-width="991"
     inkscape:window-height="651"
     inkscape:window-x="144"
     inkscape:window-y="42"
     inkscape:window-maximized="0" />
  <metadata
     id="metadata7">
    <rdf:RDF>
      <cc:Work
         rdf:about="">
        <dc:format>image/svg+xml</dc:format>
        <dc:type
           rdf:resource="http://purl.org/dc/dcmitype/StillImage" />
        <dc:title></dc:title>
      </cc:Work>
    </rdf:RDF>
  </metadata>
  <g
     inkscape:label="Layer 1"
     inkscape:groupmode="layer"
     id="layer1"
     transform="translate(0,-582.36218)">
    <g
       transform="matrix(0.83972823,0,0,1.1908615,8.5714286,511.42857)"
       style="font-size:226.43908691px;font-style:normal;font-weight:bold;line-height:125%;letter-spacing:0px;word-spacing:0px;fill:#000000;fill-opacity:1;stroke:none;font-family:Sans;-inkscape-font-specification:Sans Bold"
       id="text2985">
      <path
         d="m 19.372762,360.20632 c 3e-6,-20.44237 7.207258,-50.31972 21.621788,-89.63214 -6.814152,-1.31029 -11.400587,-2.48966 -13.75932,-3.53811 l 0,-12.18682 c 6.289963,0.78637 12.579932,1.44158 18.869927,1.96562 11.79366,-29.61515 24.3736,-55.0371 37.73984,-76.26595 13.62821,-21.22844 24.635653,-31.84276 33.022373,-31.84299 2.88281,2.3e-4 5.37259,1.04856 7.46935,3.14499 2.35863,2.09689 3.538,4.84875 3.53811,8.25559 -1.1e-4,4.7177 -2.48989,11.79391 -7.46935,21.22866 -4.97965,9.17307 -12.05587,21.49093 -21.228663,36.9536 -9.17295,15.463 -16.51125,28.69815 -22.01491,39.70547 30.139373,1.2e-4 54.119883,-0.91717 71.941583,-2.75187 l 0,12.97307 c -31.18789,3.1451 -57.527133,4.7176 -79.017803,4.71749 -13.62832,32.23619 -20.44245,58.57544 -20.44242,79.0178 -3e-5,10.7454 1.7035,18.34577 5.1106,22.80116 3.40704,4.4554 8.77972,6.6831 16.11806,6.6831 13.10405,0 26.47024,-5.89685 40.098593,-17.69056 13.89026,-12.05575 25.94603,-28.30483 36.16735,-48.7473 l 5.50373,3.93123 c -10.74549,24.3737 -24.63584,44.29193 -41.67108,59.75476 -17.035423,15.20076 -34.725963,22.80114 -53.071663,22.80116 -12.05581,-2e-5 -21.490761,-3.53812 -28.304886,-10.61433 -6.81414,-6.81414 -10.221206,-17.03534 -10.221209,-30.66363"
         style="font-size:393.12341309px;font-variant:normal;font-stretch:normal;fill:#000000;fill-opacity:1;font-family:Dancing Script;-inkscape-font-specification:Dancing Script Bold"
         id="path3009"
         inkscape:connector-curvature="0" />
      <path
         d="m 134.60092,354.30947 c 0,-15.20073 4.32435,-33.67751 12.97307,-55.4304 8.91078,-22.0148 16.51116,-33.02225 22.80116,-33.02237 2.3587,1.2e-4 5.63473,1.17949 9.82809,3.53811 4.45535,2.35886 7.20721,4.97968 8.25559,7.86247 -5.50378,7.86257 -11.13854,19.39418 -16.90431,34.59486 -5.76584,15.20083 -8.64874,28.30493 -8.64871,39.31234 -3e-5,15.46288 4.06224,23.19429 12.18682,23.19429 13.36614,0 32.10501,-23.45634 56.21665,-70.3691 3.14489,-15.98692 5.76571,-25.94603 7.86247,-29.87737 2.09655,-3.93113 5.11049,-5.89674 9.04184,-5.89686 10.48316,1.2e-4 15.7248,3.80031 15.72493,11.40058 -1.3e-4,0.78635 -0.65533,3.14509 -1.96561,7.07622 -5.76593,18.60792 -8.64884,42.32635 -8.64872,71.15534 -1.2e-4,13.36621 2.35862,20.0493 7.07622,20.0493 6.81401,0 15.7248,-7.60038 26.73239,-22.80116 11.26938,-15.46281 21.62162,-32.89127 31.05675,-52.28542 -1.8e-4,-33.28433 7.20708,-49.92654 21.62179,-49.92667 5.7656,1.3e-4 10.08996,1.96575 12.97307,5.89685 2.88269,3.66928 4.32414,7.33842 4.32436,11.00746 -2.2e-4,1.31052 -1.70375,5.76592 -5.1106,13.36619 -5.24186,10.48338 -7.86268,22.14603 -7.86247,34.98799 -2.1e-4,19.39413 5.7656,29.09117 17.29743,29.09113 9.95889,4e-5 20.04905,-9.95908 30.2705,-29.87738 l 7.46935,5.89685 c -9.95938,23.84953 -23.58765,35.77426 -40.88484,35.77423 -16.24931,3e-5 -28.30508,-10.87638 -36.16735,-32.62924 -27.5188,47.96106 -51.76139,71.94157 -72.72783,71.94158 -14.41463,-1e-5 -22.14605,-13.10411 -23.19428,-39.31234 -1e-4,-1.31038 0.13095,-5.37265 0.39312,-12.18682 0.26199,-6.8141 0.52407,-11.66262 0.78625,-14.54557 -23.06331,41.93317 -43.63675,62.89973 -61.72038,62.89975 -3e-5,-2e-5 -0.13107,-2e-5 -0.39312,0 -8.64874,-2e-5 -15.98704,-3.93125 -22.01491,-11.79371 -5.76582,-8.12454 -8.64872,-17.82157 -8.64872,-29.09113"
         style="font-size:393.12341309px;font-variant:normal;font-stretch:normal;font-family:Dancing Script;-inkscape-font-specification:Dancing Script Bold"
         id="path3011"
         inkscape:connector-curvature="0" />
      <path
         d="m 379.85464,360.20632 c 0,-10.48325 2.75187,-24.24256 8.25559,-41.27796 5.50372,-17.29734 12.97306,-33.15331 22.40804,-47.56793 9.43492,-14.4144 18.73883,-21.62165 27.91176,-21.62179 3.40701,1.4e-4 6.15887,1.04847 8.25559,3.14499 2.35868,1.83471 3.53805,4.58657 3.53811,8.25559 -6e-5,3.40719 -3.40713,10.61445 -10.22121,21.62179 -6.5521,10.74546 -13.23519,23.06332 -20.04929,36.9536 -6.81417,13.62833 -10.22124,25.42202 -10.22121,35.38111 -3e-5,8.12457 1.44143,13.62829 4.32436,16.51118 2.88287,2.88292 7.33826,4.32437 13.36619,4.32436 20.70444,10e-6 41.27788,-20.04927 61.72038,-60.14788 l 5.89685,6.28997 c -9.17298,23.06328 -20.83563,41.0159 -34.98798,53.85791 -14.15251,12.84203 -29.35326,19.26303 -45.60232,19.26305 -11.00747,-2e-5 -19.52514,-3.27604 -25.55302,-9.82809 -6.02789,-6.55205 -9.04184,-14.93868 -9.04184,-25.1599 m 61.32725,-157.64249 c -5e-5,-6.0277 3.27597,-11.26934 9.82809,-15.72493 6.81406,-4.71728 14.02132,-7.07602 21.62179,-7.07622 11.26943,2e-4 16.9042,4.84872 16.9043,14.54556 -10e-5,5.50391 -3.01405,10.8766 -9.04183,16.11806 -6.02799,4.97973 -12.58004,7.46951 -19.65618,7.46935 -5.5038,1.6e-4 -10.22127,-1.31025 -14.15244,-3.93124 -3.66921,-2.62065 -5.50378,-6.42084 -5.50373,-11.40058"
         style="font-size:393.12341309px;font-variant:normal;font-stretch:normal;font-family:Dancing Script;-inkscape-font-specification:Dancing Script Bold"
         id="path3013"
         inkscape:connector-curvature="0" />
      <path
         d="m 478.97702,332.29456 c 12.05577,-21.49067 22.67009,-45.2091 31.84299,-71.15534 -2.62085,-2.62069 -3.93126,-6.1588 -3.93123,-10.61433 -3e-5,-6.814 2.09663,-13.23501 6.28997,-19.26305 4.19328,-6.02773 8.25555,-9.04167 12.18683,-9.04183 2.62077,1.6e-4 4.71743,1.57265 6.28997,4.71748 1.83452,3.14514 2.75181,5.76596 2.75187,7.86246 -6e-5,1.04848 -0.7863,3.6693 -2.35874,7.86247 -1.31047,3.93137 -1.96567,6.15907 -1.96562,6.6831 0.26203,2.35887 2.62077,5.24177 7.07622,8.64872 4.45534,3.14511 9.30385,6.29009 14.54557,9.43496 5.24156,3.1451 9.95904,7.86257 14.15244,14.15244 4.45531,6.02799 6.683,12.84212 6.6831,20.44242 -10e-5,8.3867 -3.40716,19.91831 -10.22121,34.59486 -6.81422,14.67664 -10.22128,24.11159 -10.22121,28.30488 -7e-5,6.02791 3.27595,9.04185 9.82809,9.04184 11.53152,10e-6 24.37354,-6.421 38.52609,-19.26304 14.15231,-13.10408 24.11142,-25.9461 29.87738,-38.5261 l 9.43496,7.07622 c -8.1247,18.3458 -20.70464,34.72593 -37.73985,49.14043 -16.77337,14.15244 -33.54662,21.22865 -50.31979,21.22866 -9.69711,-10e-6 -17.55957,-2.62083 -23.58741,-7.86247 -6.02793,-4.97956 -9.04188,-11.79369 -9.04184,-20.44241 -4e-5,-7.60036 3.66911,-19.65614 11.00746,-36.16736 7.60033,-16.51111 11.40052,-27.78064 11.40058,-33.80861 -6e-5,-9.95903 -6.55211,-18.34565 -19.65617,-25.1599 -10.22124,25.15999 -22.5391,49.66466 -36.9536,73.51408 l -5.89685,-11.40058"
         style="font-size:393.12341309px;font-variant:normal;font-stretch:normal;font-family:Dancing Script;-inkscape-font-specification:Dancing Script Bold"
         id="path3015"
         inkscape:connector-curvature="0" />
      <path
         d="m 622.57762,353.52322 c 0,-24.11151 8.25559,-56.74072 24.76678,-97.88772 16.77322,-41.40884 35.25,-77.57615 55.4304,-108.50206 20.18023,-31.18753 35.11891,-46.78141 44.81607,-46.78169 4.45527,2.8e-4 8.25546,3.53839 11.40058,10.61433 3.14484,6.81441 4.84838,13.75958 5.1106,20.83554 -1.4e-4,12.05603 -4.58658,29.2224 -13.75932,51.49917 -8.91091,22.01509 -21.88397,45.47143 -38.91921,70.36909 -17.03543,24.89792 -34.857,44.68511 -53.46479,59.36163 -2.88294,15.46291 -4.32439,27.38764 -4.32436,35.77423 -3e-5,0.26212 -3e-5,0.65524 0,1.17937 -3e-5,18.0837 5.63473,27.12553 16.90431,27.12552 9.17282,10e-6 18.86986,-6.02788 29.09113,-18.08368 10.48321,-12.31783 19.78712,-27.12546 27.91176,-44.42294 l 9.43497,5.1106 c -11.53173,23.84953 -24.2427,42.45735 -38.13297,55.82353 -13.89043,13.1041 -28.30494,19.65615 -43.24358,19.65617 -22.01492,-2e-5 -33.02237,-13.89036 -33.02237,-41.67109 m 42.45733,-64.86536 c 20.96652,-22.80104 39.70538,-50.31965 56.21665,-82.55591 16.51107,-32.498 24.76665,-55.82329 24.76678,-69.97597 -3.4072,2.5e-4 -10.09029,7.60063 -20.0493,22.80116 -9.95922,15.20098 -20.83562,35.11921 -32.62924,59.75475 -11.79376,24.3738 -21.22872,47.6991 -28.30489,69.97597"
         style="font-size:393.12341309px;font-variant:normal;font-stretch:normal;font-family:Dancing Script;-inkscape-font-specification:Dancing Script Bold"
         id="path3017"
         inkscape:connector-curvature="0" />
    </g>
  </g>
</svg>
